<svg width="24" height="27" viewBox="0 0 24 27" fill="none" xmlns="http://www.w3.org/2000/svg">
<path d="M21.75 11.4546L21.75 10.7046L20.25 10.7046L20.25 11.4546L21.75 11.4546ZM20.25 16.4546C20.25 16.8688 20.5858 17.2046 21 17.2046C21.4142 17.2046 21.75 16.8688 21.75 16.4546L20.25 16.4546ZM21 11.4546L20.25 11.4546L20.25 16.4546L21 16.4546L21.75 16.4546L21.75 11.4546L21 11.4546Z" fill="#FF9228"/>
<path d="M6 12.4546V19.7252V19.7252C9.43862 22.7222 14.5614 22.7222 18 19.7252V19.7252V12.4546" stroke="#FF9228" stroke-width="1.5"/>
<path d="M14.3886 14.5627C12.9825 15.2808 11.333 15.3256 9.89663 14.6973L9.61144 14.5627L2.64465 11.003L9.61213 7.44534C11.0181 6.72731 12.667 6.68307 14.1034 7.31137L14.3879 7.44534L21.3554 11.003L14.3886 14.5627Z" stroke="#FF9228" stroke-width="1.5"/>
</svg>
